<svg width="1042" height="841" viewBox="0 0 1042 841" fill="none" xmlns="http://www.w3.org/2000/svg">
    <circle cx="880.5" cy="289.5" r="161.5" fill="#333333" fill-opacity="0.07"/>
    <circle cx="405" cy="720" r="121" fill="#333333" fill-opacity="0.07"/>
    <circle cx="765" cy="565" r="236" stroke="#00b972" stroke-width="6"/>
    <circle cx="235.263" cy="202.263" r="202.263" fill="#dc602a"/>
    <circle cx="201.5" cy="404.5" r="117.878" stroke="#FFC700" stroke-width="7.24481"/>
    <path d="M80 127.954C80 150.041 62.0986 167.951 40 167.951C17.9117 167.951 0 150.041 0 127.954C0 105.862 17.9117 87.9514 40 87.9514C62.0986 87.9514 80 105.862 80 127.954Z"
          fill="#82E6F6"/>
    <path d="M961.83 732.964C960.991 738.405 955.9 742.138 950.456 741.298C945.015 740.459 941.282 735.366 942.121 729.925C942.961 724.483 948.054 720.751 953.495 721.59C958.939 722.429 962.669 727.522 961.83 732.964Z"
          fill="#3ACFB9"/>
    <path d="M1007.11 701.033C1006.27 706.474 1001.18 710.207 995.735 709.367C990.293 708.528 986.561 703.435 987.4 697.994C988.239 692.551 993.332 688.82 998.774 689.659C1004.22 690.498 1007.95 695.591 1007.11 701.033Z"
          fill="#3ACFB9"/>
    <path d="M931.307 687.903C930.468 693.344 925.377 697.076 919.933 696.237C914.491 695.398 910.759 690.305 911.598 684.864C912.437 679.421 917.53 675.689 922.972 676.528C928.416 677.368 932.146 682.46 931.307 687.903Z"
          fill="#3ACFB9"/>
    <path d="M1001.38 672.765C1000.54 678.206 995.448 681.939 990.004 681.099C984.563 680.26 980.83 675.167 981.669 669.726C982.509 664.283 987.602 660.552 993.043 661.391C998.487 662.23 1002.22 667.322 1001.38 672.765Z"
          fill="#3ACFB9"/>
    <path d="M943.661 663.865C942.822 669.306 937.731 673.039 932.287 672.199C926.846 671.36 923.114 666.267 923.953 660.826C924.792 655.384 929.885 651.652 935.326 652.491C940.771 653.33 944.5 658.423 943.661 663.865Z"
          fill="#3ACFB9"/>
    <path d="M990.097 727.234C989.258 732.675 984.168 736.408 978.723 735.568C973.282 734.729 969.55 729.636 970.389 724.195C971.228 718.753 976.321 715.021 981.762 715.86C987.207 716.699 990.936 721.792 990.097 727.234Z"
          fill="#3ACFB9"/>
    <path d="M937.037 716.17C936.197 721.612 931.107 725.344 925.663 724.504C920.221 723.665 916.489 718.572 917.328 713.131C918.167 707.689 923.26 703.957 928.702 704.796C934.146 705.635 937.876 710.728 937.037 716.17Z"
          fill="#3ACFB9"/>
    <path d="M975.177 655.755C974.338 661.196 969.247 664.928 963.803 664.089C958.361 663.25 954.629 658.157 955.468 652.716C956.307 647.273 961.4 643.541 966.842 644.38C972.286 645.22 976.016 650.312 975.177 655.755Z"
          fill="#3ACFB9"/>
</svg>

