<svg width="48" height="48" viewBox="0 0 48 48" fill="#EDBD58" xmlns="http://www.w3.org/2000/svg">
    <circle cx="24" cy="24" r="24" fill="#EDBD58"/>
    <path fill-rule="evenodd" clip-rule="evenodd" d="M21.3346 25.3324H12.0013V22.6658H21.3346V25.3324Z" fill="#412505"/>
    <path fill-rule="evenodd" clip-rule="evenodd"
          d="M17.3346 15.999C16.5982 15.999 16.0013 16.596 16.0013 17.3323V18.6655L20.0013 18.6658V21.3324H10.668V18.6658H13.3346V17.3323C13.3346 15.1233 15.1254 13.3324 17.3345 13.3323L25.3345 13.332C27.5436 13.3319 29.3346 15.1228 29.3346 17.3319H32.668L37.3346 23.5541V31.9991H33.107C32.5579 33.5527 31.0763 34.6658 29.3346 34.6658C27.5928 34.6658 26.111 33.5525 25.5621 31.9986H23.7739C23.2249 33.5525 21.7431 34.6658 20.0013 34.6658C18.2597 34.6658 16.778 33.5527 16.2289 31.9991H13.3346V26.6653H16.0013V29.3324H16.2289C16.778 27.7789 18.2597 26.6658 20.0013 26.6658C21.7427 26.6658 23.2242 27.7786 23.7735 29.3319H25.5624C25.7886 28.6924 26.1727 28.1276 26.668 27.6843V17.332C26.668 16.5956 26.071 15.9987 25.3346 15.9987L17.3346 15.999ZM34.668 29.3324V25.3319H29.3346V26.6658C31.0763 26.6658 32.5579 27.7789 33.107 29.3324H34.668ZM29.3346 22.6653H33.3346L31.3346 19.9986H29.3346V22.6653ZM20.0013 31.9991C20.7377 31.9991 21.3346 31.4022 21.3346 30.6658C21.3346 29.9294 20.7377 29.3324 20.0013 29.3324C19.2649 29.3324 18.668 29.9294 18.668 30.6658C18.668 31.4022 19.2649 31.9991 20.0013 31.9991ZM29.3346 31.9991C30.071 31.9991 30.668 31.4022 30.668 30.6658C30.668 29.9294 30.071 29.3324 29.3346 29.3324C28.5983 29.3324 28.0013 29.9294 28.0013 30.6658C28.0013 31.4022 28.5983 31.9991 29.3346 31.9991Z"
          fill="#412505"/>
</svg>
