<svg xmlns="http://www.w3.org/2000/svg" viewBox="0 0 100 100">
    <g id="f8f79ad4-6a11-4c3d-ad25-78fc7a1090cd" stroke="none" fill="#412505">
        <path d="M99.662 7.267C83.948-4.594 62.996 1.633 62.996 1.633 78.413-1.925 88.69 20.69 90.472 23.872c2.638 4.71 7.216 4.744 7.216 4.744-1.78-3.855.592-12.058 1.679-15.616 1.087-3.559.295-5.733.295-5.733zM36.923 1.633S15.97-4.594.256 7.267c0 0-.792 2.174.296 5.733 1.087 3.558 3.459 11.761 1.679 15.616 0 0 4.402-.034 7.216-4.744 1.872-3.131 12.057-25.797 27.476-22.239zM49.681 75.595c-6.078 2.149-10.228.519-10.228.519s2.593 6.746 10.599 6.449c8.006-.297 9.785-5.856 9.785-5.856-4.522 1.037-10.156-1.112-10.156-1.112z"></path>
        <path d="M85.894 19.698S77.722.25 62.006 2.622l-1.778 2.174s-4.491-.961-10.268-.715c-5.777-.246-10.268.715-10.268.715l-1.779-2.174C22.198.25 13.853 20.809 13.853 20.809s3.798 6.918 7.256 9.586c0 0-3.655 19.57 9.688 30.738 0 0 1.977 8.006 4.448 10.279 2.438 2.244 6.617 5.449 14.715 2.103 8.098 3.347 12.275.142 14.714-2.103 2.471-2.273 4.449-10.279 4.449-10.279 13.342-11.168 9.687-30.738 9.687-30.738 3.459-2.669 7.084-10.697 7.084-10.697zM31.48 34.897c-3.954-.692-5.041-5.14-5.041-5.14.889-1.384 2.865-3.953 6.917-3.558 4.053.395 8.797 6.129 8.797 6.129-2.667 1.877-6.72 3.261-10.673 2.569zm27.851 24.778c-.149 1.038-2.002 2.298-2.595 2.373 0 0-.444-2.892-2.446-2.002-2.001.89-2.372 4.521-.593 4.966 1.779.445-.741 2.892-1.705 3.484-.963.594-1.557 2.372-1.557 3.262h-.021c0-.89-.593-2.668-1.557-3.262-.963-.593-3.484-3.04-1.704-3.484 1.779-.444 1.408-4.076-.594-4.966-2.001-.89-2.445 2.002-2.445 2.002-.594-.075-2.446-1.335-2.595-2.373-.148-1.038-.741-4.373 2.891-6.522 3.633-2.149 6.004-.52 6.004-.52h.021s2.373-1.63 6.004.52 3.04 5.484 2.892 6.522zm9.385-24.501c-3.955.692-8.006-.692-10.674-2.569 0 0 4.743-5.733 8.795-6.128 4.053-.396 6.03 2.173 6.92 3.559 0-.001-1.089 4.446-5.041 5.138z"></path>
    </g>
</svg>